<svg width="101" height="101" viewBox="0 0 101 101" fill="none" xmlns="http://www.w3.org/2000/svg">
<path d="M11.1462 32.6296C11.1447 32.6344 11.1409 32.648 11.1372 32.6729L6.77515 72H94.2248L89.8628 32.6729C89.8609 32.6606 89.8591 32.651 89.8575 32.644C89.8559 32.6367 89.8546 32.632 89.8538 32.6296L89.8532 32.6277C89.8532 32.6277 89.8513 32.6251 89.8497 32.623C89.8442 32.6158 89.8298 32.5985 89.8013 32.5723C89.7924 32.5718 89.7813 32.5714 89.7678 32.5714H78.9886V36.2143C78.9886 39.1144 77.9225 41.6877 75.8723 43.7388C73.8221 45.79 71.2492 46.8571 68.349 46.8571C65.4487 46.8571 62.8759 45.79 60.8256 43.7388C58.7754 41.6877 57.7094 39.1144 57.7094 36.2143V32.5714H43.2906V36.2143C43.2906 39.1144 42.2246 41.6877 40.1744 43.7388C38.1241 45.79 35.5513 46.8571 32.651 46.8571C29.7508 46.8571 27.1779 45.79 25.1276 43.7388C23.0775 41.6877 22.0114 39.1144 22.0114 36.2143V32.5714H11.2322C11.2187 32.5714 11.2076 32.5718 11.1987 32.5723C11.1702 32.5985 11.1558 32.6158 11.1503 32.623C11.1487 32.6251 11.1468 32.6277 11.1468 32.6277M11.1468 32.6277C11.145 32.6303 11.1456 32.6299 11.1468 32.6277ZM11.1468 32.6277L11.1475 32.6257M5.60563 82.5714H95.3943L96.9971 96.9106L96.9975 96.915C96.9993 96.933 96.9999 96.9462 97 96.9551C96.9947 96.9639 96.9855 96.978 96.9708 96.9975C96.9556 96.9988 96.9347 97 96.9074 97H4.0926C4.06529 97 4.04437 96.9988 4.02921 96.9975C4.01446 96.9781 4.00525 96.9639 4 96.9552C4.00009 96.9462 4.00064 96.9331 4.00242 96.9152L4.0029 96.9106L5.60563 82.5714ZM68.4188 21.9286V36.2134C68.4104 36.2231 68.3989 36.2358 68.3836 36.2511C68.3698 36.2649 68.3583 36.2755 68.349 36.2836C68.3397 36.2755 68.3282 36.2649 68.3144 36.2511C68.2991 36.2358 68.2876 36.2231 68.2792 36.2134V21.9286C68.2792 17.0567 66.5159 12.8 63.0713 9.35382C59.6266 5.90755 55.3711 4.14286 50.5 4.14286C45.6289 4.14286 41.3734 5.90754 37.9287 9.35382C34.4841 12.8 32.7208 17.0567 32.7208 21.9286V36.2134C32.7124 36.2231 32.7009 36.2358 32.6856 36.2511C32.6718 36.2649 32.6603 36.2755 32.651 36.2836C32.6417 36.2755 32.6302 36.2649 32.6164 36.2511C32.6011 36.2358 32.5896 36.2231 32.5812 36.2134V21.9286C32.5812 16.9418 34.3041 12.7814 37.8317 9.25221C41.3592 5.72304 45.5169 4 50.5 4C55.4831 4 59.6407 5.72304 63.1683 9.25221C66.6959 12.7814 68.4188 16.9418 68.4188 21.9286Z" stroke="#3D3D3D" stroke-width="7"/>
</svg>
