<svg width="513" height="336" viewBox="0 0 513 336" fill="none" xmlns="http://www.w3.org/2000/svg">
<path opacity="0.2" fill-rule="evenodd" clip-rule="evenodd" d="M256.5 59.1857C185.764 59.1857 121.735 52.5368 75.3985 41.7917C52.2283 36.4187 33.4979 30.0251 20.5664 22.9353C7.6241 15.8396 0.555796 8.0845 0.555796 0H0C0 1.23848 0.161004 2.46706 0.477893 3.68472H0C0 4.92319 0.161004 6.15177 0.477893 7.36943H0C0 8.60791 0.161004 9.83649 0.477893 11.0541H0C0 12.2926 0.161004 13.5212 0.477893 14.7389H0C0 15.9773 0.161004 17.2059 0.477893 18.4236H0C0 19.6621 0.161004 20.8906 0.477893 22.1083H0C0 23.3468 0.161004 24.5753 0.477893 25.793H0C0 27.0315 0.161004 28.2601 0.477893 29.4777H0C0 30.7162 0.161004 31.9448 0.477893 33.1624H0C0 34.4009 0.161004 35.6295 0.477893 36.8472H0C0 38.0856 0.161004 39.3142 0.477893 40.5319H0C0 41.7704 0.161004 42.9989 0.477893 44.2166H0C0 45.4551 0.161004 46.6836 0.477893 47.9013H0C0 49.1398 0.161004 50.3684 0.477893 51.586H0C0 52.8245 0.161004 54.0531 0.477893 55.2707H0C0 56.5092 0.161004 57.7378 0.477893 58.9554H0C0 60.1939 0.161004 61.4225 0.477893 62.6402H0C0 63.8786 0.161004 65.1072 0.477893 66.3249H0C0 67.5634 0.161004 68.7919 0.477893 70.0096H0C0 71.2481 0.161004 72.4766 0.477893 73.6943H0C0 74.9328 0.161004 76.1614 0.477893 77.379H0C0 78.6175 0.161004 79.8461 0.477893 81.0637H0C0 82.3022 0.161004 83.5308 0.477893 84.7485H0C0 85.9869 0.161004 87.2155 0.477893 88.4332H0C0 89.6717 0.161004 90.9002 0.477893 92.1179H0C0 93.3564 0.161004 94.5849 0.477893 95.8026H0C0 97.0411 0.161004 98.2697 0.477893 99.4873H0C0 100.726 0.161004 101.954 0.477893 103.172H0C0 104.411 0.161004 105.639 0.477893 106.857H0C0 108.095 0.161004 109.324 0.477893 110.541H0C0 111.78 0.161004 113.009 0.477893 114.226H0C0 115.465 0.161004 116.693 0.477893 117.911H0C0 119.149 0.161004 120.378 0.477893 121.596H0C0 122.834 0.161004 124.063 0.477893 125.28H0C0 126.519 0.161004 127.747 0.477893 128.965H0C0 130.204 0.161004 131.432 0.477893 132.65H0C0 133.888 0.161004 135.117 0.477893 136.334H0C0 137.573 0.161004 138.802 0.477893 140.019H0C0 141.258 0.161004 142.486 0.477893 143.704H0C0 144.942 0.161004 146.171 0.477893 147.389H0C0 148.627 0.161004 149.856 0.477893 151.073H0C0 152.312 0.161004 153.54 0.477893 154.758H0C0 155.997 0.161004 157.225 0.477893 158.443H0C0 159.681 0.161004 160.91 0.477893 162.127H0C0 163.366 0.161004 164.595 0.477893 165.812H0C0 167.051 0.161004 168.279 0.477893 169.497H0C0 170.735 0.161004 171.964 0.477893 173.182H0C0 174.42 0.161004 175.649 0.477893 176.866H0C0 178.105 0.161004 179.333 0.477893 180.551H0C0 181.79 0.161004 183.018 0.477893 184.236H0C0 185.474 0.161004 186.703 0.477893 187.92H0C0 189.159 0.161004 190.388 0.477893 191.605H0C0 192.844 0.161004 194.072 0.477893 195.29H0C0 196.528 0.161004 197.757 0.477893 198.975H0C0 200.213 0.161004 201.442 0.477893 202.659H0C0 203.898 0.161004 205.126 0.477893 206.344H0C0 207.583 0.161004 208.811 0.477893 210.029H0C0 211.267 0.161004 212.496 0.477893 213.714H0C0 214.952 0.161004 216.181 0.477893 217.398H0C0 218.637 0.161004 219.865 0.477893 221.083H0C0 222.321 0.161004 223.55 0.477893 224.768H0C0 226.006 0.161004 227.235 0.477893 228.452H0C0 229.691 0.161004 230.919 0.477894 232.137H0C0 233.376 0.161004 234.604 0.477894 235.822H0C0 237.06 0.161004 238.289 0.477894 239.507H0C0 240.745 0.161004 241.974 0.477894 243.191H0C0 244.43 0.161004 245.658 0.477894 246.876H0C0 248.114 0.161004 249.343 0.477894 250.561H0C0 251.799 0.161004 253.028 0.477894 254.245H0C0 255.484 0.161004 256.712 0.477894 257.93H0C0 259.169 0.161004 260.397 0.477894 261.615H0C0 262.853 0.161004 264.082 0.477894 265.299H0C0 266.538 0.161004 267.767 0.477894 268.984H0C0 270.223 0.161004 271.451 0.477894 272.669H0C0 273.907 0.161004 275.136 0.477894 276.354H0C0 284.676 7.27102 292.552 20.2598 299.673C33.2594 306.8 52.0518 313.21 75.2487 318.589C121.646 329.348 185.728 336 256.5 336C327.272 336 391.354 329.348 437.751 318.589C460.948 313.21 479.741 306.8 492.74 299.673C505.729 292.552 513 284.676 513 276.354H512.522C512.839 275.136 513 273.907 513 272.669H512.522C512.839 271.451 513 270.223 513 268.984H512.522C512.839 267.767 513 266.538 513 265.299H512.522C512.839 264.082 513 262.853 513 261.615H512.522C512.839 260.397 513 259.169 513 257.93H512.522C512.839 256.712 513 255.484 513 254.245H512.522C512.839 253.028 513 251.799 513 250.561H512.522C512.839 249.343 513 248.114 513 246.876H512.522C512.839 245.658 513 244.43 513 243.191H512.522C512.839 241.974 513 240.745 513 239.507H512.522C512.839 238.289 513 237.06 513 235.822H512.522C512.839 234.604 513 233.376 513 232.137H512.522C512.839 230.919 513 229.691 513 228.452H512.522C512.839 227.235 513 226.006 513 224.768H512.522C512.839 223.55 513 222.321 513 221.083H512.522C512.839 219.865 513 218.637 513 217.398H512.522C512.839 216.181 513 214.952 513 213.714H512.522C512.839 212.496 513 211.267 513 210.029H512.522C512.839 208.811 513 207.583 513 206.344H512.522C512.839 205.126 513 203.898 513 202.659H512.522C512.839 201.442 513 200.213 513 198.975H512.522C512.839 197.757 513 196.528 513 195.29H512.522C512.839 194.072 513 192.844 513 191.605H512.522C512.839 190.388 513 189.159 513 187.92H512.522C512.839 186.703 513 185.474 513 184.236H512.522C512.839 183.018 513 181.79 513 180.551H512.522C512.839 179.333 513 178.105 513 176.866H512.522C512.839 175.649 513 174.42 513 173.182H512.522C512.839 171.964 513 170.735 513 169.497H512.522C512.839 168.279 513 167.051 513 165.812H512.522C512.839 164.595 513 163.366 513 162.127H512.522C512.839 160.91 513 159.681 513 158.443H512.522C512.839 157.225 513 155.997 513 154.758H512.522C512.839 153.54 513 152.312 513 151.073H512.522C512.839 149.856 513 148.627 513 147.389H512.522C512.839 146.171 513 144.942 513 143.704H512.522C512.839 142.486 513 141.258 513 140.019H512.522C512.839 138.802 513 137.573 513 136.334H512.522C512.839 135.117 513 133.888 513 132.65H512.522C512.839 131.432 513 130.204 513 128.965H512.522C512.839 127.747 513 126.519 513 125.28H512.522C512.839 124.063 513 122.834 513 121.596H512.522C512.839 120.378 513 119.149 513 117.911H512.522C512.839 116.693 513 115.465 513 114.226H512.522C512.839 113.009 513 111.78 513 110.541H512.522C512.839 109.324 513 108.095 513 106.857H512.522C512.839 105.639 513 104.411 513 103.172H512.522C512.839 101.954 513 100.726 513 99.4873H512.522C512.839 98.2697 513 97.0411 513 95.8026H512.522C512.839 94.5849 513 93.3564 513 92.1179H512.522C512.839 90.9002 513 89.6717 513 88.4332H512.522C512.839 87.2155 513 85.9869 513 84.7485H512.522C512.839 83.5308 513 82.3022 513 81.0637H512.522C512.839 79.8461 513 78.6175 513 77.379H512.522C512.839 76.1614 513 74.9328 513 73.6943H512.522C512.839 72.4766 513 71.2481 513 70.0096H512.522C512.839 68.7919 513 67.5634 513 66.3249H512.522C512.839 65.1072 513 63.8786 513 62.6402H512.522C512.839 61.4225 513 60.1939 513 58.9554H512.522C512.839 57.7378 513 56.5092 513 55.2707H512.522C512.839 54.0531 513 52.8245 513 51.586H512.522C512.839 50.3684 513 49.1398 513 47.9013H512.522C512.839 46.6836 513 45.4551 513 44.2166H512.522C512.839 42.9989 513 41.7704 513 40.5319H512.522C512.839 39.3142 513 38.0856 513 36.8472H512.522C512.839 35.6295 513 34.4009 513 33.1624H512.522C512.839 31.9448 513 30.7162 513 29.4777H512.522C512.839 28.2601 513 27.0315 513 25.793H512.522C512.839 24.5753 513 23.3468 513 22.1083H512.522C512.839 20.8906 513 19.6621 513 18.4236H512.522C512.839 17.2059 513 15.9773 513 14.7389H512.522C512.839 13.5212 513 12.2926 513 11.0541H512.522C512.839 9.83649 513 8.60791 513 7.36943H512.522C512.839 6.15177 513 4.92319 513 3.68472H512.522C512.839 2.46706 513 1.23848 513 0H512.444C512.444 8.0845 505.376 15.8396 492.434 22.9353C479.502 30.0251 460.772 36.4187 437.602 41.7917C391.265 52.5368 327.236 59.1857 256.5 59.1857ZM512.441 3.98419C510.51 10.8394 503.638 17.3449 492.74 23.3195C479.741 30.4466 460.948 36.8561 437.751 42.2353C391.354 52.9946 327.272 59.6463 256.5 59.6463C185.728 59.6463 121.646 52.9946 75.2487 42.2353C52.0518 36.8561 33.2594 30.4466 20.2598 23.3195C9.36239 17.3449 2.48971 10.8394 0.55903 3.98418C0.731332 11.9607 7.78398 19.612 20.5664 26.6201C33.4979 33.7098 52.2283 40.1034 75.3985 45.4764C121.735 56.2215 185.764 62.8705 256.5 62.8705C327.236 62.8705 391.265 56.2215 437.602 45.4764C460.772 40.1034 479.502 33.7098 492.434 26.6201C505.216 19.612 512.269 11.9607 512.441 3.98419ZM492.74 27.0042C503.638 21.0296 510.51 14.5241 512.441 7.6689C512.269 15.6454 505.216 23.2967 492.434 30.3048C479.502 37.3945 460.772 43.7881 437.602 49.1611C391.265 59.9062 327.236 66.5552 256.5 66.5552C185.764 66.5552 121.735 59.9062 75.3985 49.1611C52.2283 43.7881 33.4979 37.3945 20.5664 30.3048C7.78398 23.2967 0.731332 15.6454 0.55903 7.6689C2.48971 14.5241 9.36239 21.0296 20.2598 27.0042C33.2594 34.1313 52.0518 40.5408 75.2487 45.92C121.646 56.6793 185.728 63.331 256.5 63.331C327.272 63.331 391.354 56.6793 437.751 45.92C460.948 40.5408 479.741 34.1313 492.74 27.0042ZM512.441 11.3536C510.51 18.2088 503.638 24.7143 492.74 30.6889C479.741 37.816 460.948 44.2255 437.751 49.6047C391.354 60.364 327.272 67.0158 256.5 67.0158C185.728 67.0158 121.646 60.364 75.2487 49.6047C52.0518 44.2255 33.2594 37.816 20.2598 30.6889C9.36239 24.7143 2.48971 18.2088 0.55903 11.3536C0.731332 19.3302 7.78398 26.9814 20.5664 33.9895C33.4979 41.0792 52.2283 47.4729 75.3985 52.8459C121.735 63.5909 185.764 70.2399 256.5 70.2399C327.236 70.2399 391.265 63.5909 437.602 52.8459C460.772 47.4729 479.502 41.0792 492.434 33.9895C505.216 26.9814 512.269 19.3302 512.441 11.3536ZM492.74 34.3736C503.638 28.3991 510.51 21.8935 512.441 15.0383C512.269 23.0149 505.216 30.6661 492.434 37.6742C479.502 44.764 460.772 51.1576 437.602 56.5306C391.265 67.2757 327.236 73.9246 256.5 73.9246C185.764 73.9246 121.735 67.2757 75.3985 56.5306C52.2283 51.1576 33.4979 44.764 20.5664 37.6742C7.78398 30.6661 0.731331 23.0149 0.559031 15.0383C2.48971 21.8935 9.36239 28.3991 20.2598 34.3736C33.2594 41.5007 52.0518 47.9102 75.2487 53.2894C121.646 64.0487 185.728 70.7005 256.5 70.7005C327.272 70.7005 391.354 64.0487 437.751 53.2894C460.948 47.9102 479.741 41.5007 492.74 34.3736ZM512.441 18.7231C510.51 25.5782 503.638 32.0838 492.74 38.0583C479.741 45.1855 460.948 51.5949 437.751 56.9741C391.354 67.7334 327.272 74.3852 256.5 74.3852C185.728 74.3852 121.646 67.7334 75.2487 56.9741C52.0518 51.5949 33.2594 45.1855 20.2598 38.0583C9.36239 32.0838 2.48971 25.5782 0.559031 18.723C0.731331 26.6996 7.78398 34.3509 20.5664 41.3589C33.4979 48.4487 52.2283 54.8423 75.3985 60.2153C121.735 70.9604 185.764 77.6093 256.5 77.6093C327.236 77.6093 391.265 70.9604 437.602 60.2153C460.772 54.8423 479.502 48.4487 492.434 41.3589C505.216 34.3509 512.269 26.6996 512.441 18.7231ZM492.74 41.743C503.638 35.7685 510.51 29.2629 512.441 22.4078C512.269 30.3843 505.216 38.0356 492.434 45.0436C479.502 52.1334 460.772 58.527 437.602 63.9C391.265 74.6451 327.236 81.294 256.5 81.294C185.764 81.294 121.735 74.6451 75.3985 63.9C52.2283 58.527 33.4979 52.1334 20.5664 45.0436C7.78398 38.0356 0.731331 30.3843 0.559031 22.4078C2.48971 29.2629 9.36239 35.7685 20.2598 41.743C33.2594 48.8702 52.0518 55.2796 75.2487 60.6588C121.646 71.4181 185.728 78.0699 256.5 78.0699C327.272 78.0699 391.354 71.4181 437.751 60.6588C460.948 55.2796 479.741 48.8702 492.74 41.743ZM512.441 26.0925C510.51 32.9477 503.638 39.4532 492.74 45.4278C479.741 52.5549 460.948 58.9644 437.751 64.3436C391.354 75.1028 327.272 81.7546 256.5 81.7546C185.728 81.7546 121.646 75.1028 75.2487 64.3436C52.0518 58.9644 33.2594 52.5549 20.2598 45.4278C9.36239 39.4532 2.48971 32.9477 0.559031 26.0925C0.731331 34.069 7.78398 41.7203 20.5664 48.7284C33.4979 55.8181 52.2283 62.2117 75.3985 67.5847C121.735 78.3298 185.764 84.9788 256.5 84.9788C327.236 84.9788 391.265 78.3298 437.602 67.5847C460.772 62.2117 479.502 55.8181 492.434 48.7284C505.216 41.7203 512.269 34.069 512.441 26.0925ZM492.74 49.1125C503.638 43.1379 510.51 36.6324 512.441 29.7772C512.269 37.7537 505.216 45.405 492.434 52.4131C479.502 59.5028 460.772 65.8964 437.602 71.2694C391.265 82.0145 327.236 88.6635 256.5 88.6635C185.764 88.6635 121.735 82.0145 75.3985 71.2694C52.2283 65.8964 33.4979 59.5028 20.5664 52.4131C7.78398 45.405 0.731331 37.7537 0.559031 29.7772C2.48971 36.6324 9.36239 43.1379 20.2598 49.1125C33.2594 56.2396 52.0518 62.6491 75.2487 68.0283C121.646 78.7876 185.728 85.4393 256.5 85.4393C327.272 85.4393 391.354 78.7876 437.751 68.0283C460.948 62.6491 479.741 56.2396 492.74 49.1125ZM512.441 33.4619C510.51 40.3171 503.638 46.8226 492.74 52.7972C479.741 59.9243 460.948 66.3338 437.751 71.713C391.354 82.4723 327.272 89.1241 256.5 89.1241C185.728 89.1241 121.646 82.4723 75.2487 71.713C52.0518 66.3338 33.2594 59.9243 20.2598 52.7972C9.36239 46.8226 2.48971 40.3171 0.559031 33.4619C0.731331 41.4385 7.78398 49.0897 20.5664 56.0978C33.4979 63.1875 52.2283 69.5812 75.3985 74.9541C121.735 85.6992 185.764 92.3482 256.5 92.3482C327.236 92.3482 391.265 85.6992 437.602 74.9541C460.772 69.5812 479.502 63.1875 492.434 56.0978C505.216 49.0897 512.269 41.4385 512.441 33.4619ZM492.74 56.4819C503.638 50.5074 510.51 44.0018 512.441 37.1466C512.269 45.1232 505.216 52.7744 492.434 59.7825C479.502 66.8722 460.772 73.2659 437.602 78.6389C391.265 89.3839 327.236 96.0329 256.5 96.0329C185.764 96.0329 121.735 89.3839 75.3985 78.6389C52.2283 73.2659 33.4979 66.8722 20.5664 59.7825C7.78398 52.7744 0.731331 45.1232 0.559031 37.1466C2.48971 44.0018 9.36239 50.5074 20.2598 56.4819C33.2594 63.609 52.0518 70.0185 75.2487 75.3977C121.646 86.157 185.728 92.8088 256.5 92.8088C327.272 92.8088 391.354 86.157 437.751 75.3977C460.948 70.0185 479.741 63.609 492.74 56.4819ZM512.441 40.8313C510.51 47.6865 503.638 54.1921 492.74 60.1666C479.741 67.2938 460.948 73.7032 437.751 79.0824C391.354 89.8417 327.272 96.4935 256.5 96.4935C185.728 96.4935 121.646 89.8417 75.2487 79.0824C52.0518 73.7032 33.2594 67.2938 20.2598 60.1666C9.36239 54.1921 2.48971 47.6865 0.559031 40.8313C0.731331 48.8079 7.78398 56.4592 20.5664 63.4672C33.4979 70.557 52.2283 76.9506 75.3985 82.3236C121.735 93.0687 185.764 99.7176 256.5 99.7176C327.236 99.7176 391.265 93.0687 437.602 82.3236C460.772 76.9506 479.502 70.557 492.434 63.4672C505.216 56.4592 512.269 48.8079 512.441 40.8313ZM492.74 63.8513C503.638 57.8768 510.51 51.3712 512.441 44.5161C512.269 52.4926 505.216 60.1439 492.434 67.1519C479.502 74.2417 460.772 80.6353 437.602 86.0083C391.265 96.7534 327.236 103.402 256.5 103.402C185.764 103.402 121.735 96.7534 75.3985 86.0083C52.2283 80.6353 33.4979 74.2417 20.5664 67.1519C7.78398 60.1439 0.731331 52.4926 0.559031 44.5161C2.48971 51.3712 9.36239 57.8768 20.2598 63.8513C33.2594 70.9785 52.0518 77.3879 75.2487 82.7671C121.646 93.5264 185.728 100.178 256.5 100.178C327.272 100.178 391.354 93.5264 437.751 82.7671C460.948 77.3879 479.741 70.9785 492.74 63.8513ZM512.441 48.2008C510.51 55.0559 503.638 61.5615 492.74 67.5361C479.741 74.6632 460.948 81.0727 437.751 86.4518C391.354 97.2111 327.272 103.863 256.5 103.863C185.728 103.863 121.646 97.2111 75.2487 86.4518C52.0518 81.0727 33.2594 74.6632 20.2598 67.5361C9.36239 61.5615 2.48971 55.0559 0.559031 48.2008C0.731331 56.1773 7.78398 63.8286 20.5664 70.8366C33.4979 77.9264 52.2283 84.32 75.3985 89.693C121.735 100.438 185.764 107.087 256.5 107.087C327.236 107.087 391.265 100.438 437.602 89.693C460.772 84.32 479.502 77.9264 492.434 70.8366C505.216 63.8286 512.269 56.1773 512.441 48.2008ZM492.74 71.2208C503.638 65.2462 510.51 58.7407 512.441 51.8855C512.269 59.862 505.216 67.5133 492.434 74.5214C479.502 81.6111 460.772 88.0047 437.602 93.3777C391.265 104.123 327.236 110.772 256.5 110.772C185.764 110.772 121.735 104.123 75.3985 93.3777C52.2283 88.0047 33.4979 81.6111 20.5664 74.5214C7.78398 67.5133 0.731331 59.862 0.559031 51.8855C2.48971 58.7407 9.36239 65.2462 20.2598 71.2208C33.2594 78.3479 52.0518 84.7574 75.2487 90.1366C121.646 100.896 185.728 107.548 256.5 107.548C327.272 107.548 391.354 100.896 437.751 90.1366C460.948 84.7574 479.741 78.3479 492.74 71.2208ZM512.441 55.5702C510.51 62.4254 503.638 68.9309 492.74 74.9055C479.741 82.0326 460.948 88.4421 437.751 93.8213C391.354 104.581 327.272 111.232 256.5 111.232C185.728 111.232 121.646 104.581 75.2487 93.8213C52.0518 88.4421 33.2594 82.0326 20.2598 74.9055C9.36239 68.9309 2.48971 62.4254 0.559031 55.5702C0.731331 63.5468 7.78398 71.198 20.5664 78.2061C33.4979 85.2958 52.2283 91.6895 75.3985 97.0624C121.735 107.808 185.764 114.456 256.5 114.456C327.236 114.456 391.265 107.808 437.602 97.0624C460.772 91.6895 479.502 85.2958 492.434 78.2061C505.216 71.198 512.269 63.5468 512.441 55.5702ZM492.74 78.5902C503.638 72.6156 510.51 66.1101 512.441 59.2549C512.269 67.2315 505.216 74.8827 492.434 81.8908C479.502 88.9805 460.772 95.3742 437.602 100.747C391.265 111.492 327.236 118.141 256.5 118.141C185.764 118.141 121.735 111.492 75.3985 100.747C52.2283 95.3742 33.4979 88.9805 20.5664 81.8908C7.78398 74.8827 0.731331 67.2315 0.559031 59.2549C2.48971 66.1101 9.36239 72.6156 20.2598 78.5902C33.2594 85.7173 52.0518 92.1268 75.2487 97.506C121.646 108.265 185.728 114.917 256.5 114.917C327.272 114.917 391.354 108.265 437.751 97.506C460.948 92.1268 479.741 85.7173 492.74 78.5902ZM512.441 62.9396C510.51 69.7948 503.638 76.3004 492.74 82.2749C479.741 89.402 460.948 95.8115 437.751 101.191C391.354 111.95 327.272 118.602 256.5 118.602C185.728 118.602 121.646 111.95 75.2487 101.191C52.0518 95.8115 33.2594 89.402 20.2598 82.2749C9.36239 76.3004 2.48971 69.7948 0.559031 62.9396C0.731331 70.9162 7.78398 78.5675 20.5664 85.5755C33.4979 92.6653 52.2283 99.0589 75.3985 104.432C121.735 115.177 185.764 121.826 256.5 121.826C327.236 121.826 391.265 115.177 437.602 104.432C460.772 99.0589 479.502 92.6653 492.434 85.5755C505.216 78.5675 512.269 70.9162 512.441 62.9396ZM492.74 85.9596C503.638 79.9851 510.51 73.4795 512.441 66.6244C512.269 74.6009 505.216 82.2522 492.434 89.2602C479.502 96.35 460.772 102.744 437.602 108.117C391.265 118.862 327.236 125.511 256.5 125.511C185.764 125.511 121.735 118.862 75.3985 108.117C52.2283 102.744 33.4979 96.35 20.5664 89.2602C7.78398 82.2522 0.731331 74.6009 0.559031 66.6244C2.48971 73.4795 9.36239 79.9851 20.2598 85.9596C33.2594 93.0868 52.0518 99.4962 75.2487 104.875C121.646 115.635 185.728 122.286 256.5 122.286C327.272 122.286 391.354 115.635 437.751 104.875C460.948 99.4962 479.741 93.0868 492.74 85.9596ZM512.441 70.3091C510.51 77.1642 503.638 83.6698 492.74 89.6443C479.741 96.7715 460.948 103.181 437.751 108.56C391.354 119.319 327.272 125.971 256.5 125.971C185.728 125.971 121.646 119.319 75.2487 108.56C52.0518 103.181 33.2594 96.7715 20.2598 89.6443C9.36239 83.6698 2.48971 77.1642 0.559031 70.3091C0.731331 78.2856 7.78398 85.9369 20.5664 92.9449C33.4979 100.035 52.2283 106.428 75.3985 111.801C121.735 122.546 185.764 129.195 256.5 129.195C327.236 129.195 391.265 122.546 437.602 111.801C460.772 106.428 479.502 100.035 492.434 92.9449C505.216 85.9369 512.269 78.2856 512.441 70.3091ZM492.74 93.3291C503.638 87.3545 510.51 80.849 512.441 73.9938C512.269 81.9703 505.216 89.6216 492.434 96.6296C479.502 103.719 460.772 110.113 437.602 115.486C391.265 126.231 327.236 132.88 256.5 132.88C185.764 132.88 121.735 126.231 75.3985 115.486C52.2283 110.113 33.4979 103.719 20.5664 96.6296C7.78398 89.6216 0.731331 81.9703 0.559031 73.9938C2.48971 80.849 9.36239 87.3545 20.2598 93.3291C33.2594 100.456 52.0518 106.866 75.2487 112.245C121.646 123.004 185.728 129.656 256.5 129.656C327.272 129.656 391.354 123.004 437.751 112.245C460.948 106.866 479.741 100.456 492.74 93.3291ZM512.441 77.6785C510.51 84.5337 503.638 91.0392 492.74 97.0138C479.741 104.141 460.948 110.55 437.751 115.93C391.354 126.689 327.272 133.341 256.5 133.341C185.728 133.341 121.646 126.689 75.2487 115.93C52.0518 110.55 33.2594 104.141 20.2598 97.0138C9.36239 91.0392 2.48971 84.5337 0.559031 77.6785C0.731331 85.655 7.78398 93.3063 20.5664 100.314C33.4979 107.404 52.2283 113.798 75.3985 119.171C121.735 129.916 185.764 136.565 256.5 136.565C327.236 136.565 391.265 129.916 437.602 119.171C460.772 113.798 479.502 107.404 492.434 100.314C505.216 93.3063 512.269 85.655 512.441 77.6785ZM492.74 100.699C503.638 94.7239 510.51 88.2184 512.441 81.3632C512.269 89.3398 505.216 96.991 492.434 103.999C479.502 111.089 460.772 117.482 437.602 122.855C391.265 133.601 327.236 140.249 256.5 140.249C185.764 140.249 121.735 133.601 75.3985 122.855C52.2283 117.482 33.4979 111.089 20.5664 103.999C7.78398 96.991 0.731331 89.3398 0.559031 81.3632C2.48971 88.2184 9.36239 94.7239 20.2598 100.699C33.2594 107.826 52.0518 114.235 75.2487 119.614C121.646 130.374 185.728 137.025 256.5 137.025C327.272 137.025 391.354 130.374 437.751 119.614C460.948 114.235 479.741 107.826 492.74 100.699ZM512.441 85.0479C510.51 91.9031 503.638 98.4087 492.74 104.383C479.741 111.51 460.948 117.92 437.751 123.299C391.354 134.058 327.272 140.71 256.5 140.71C185.728 140.71 121.646 134.058 75.2487 123.299C52.0518 117.92 33.2594 111.51 20.2598 104.383C9.36239 98.4087 2.48971 91.9031 0.559031 85.0479C0.731331 93.0245 7.78398 100.676 20.5664 107.684C33.4979 114.774 52.2283 121.167 75.3985 126.54C121.735 137.285 185.764 143.934 256.5 143.934C327.236 143.934 391.265 137.285 437.602 126.54C460.772 121.167 479.502 114.774 492.434 107.684C505.216 100.676 512.269 93.0245 512.441 85.0479ZM492.74 108.068C503.638 102.093 510.51 95.5878 512.441 88.7327C512.269 96.7092 505.216 104.36 492.434 111.369C479.502 118.458 460.772 124.852 437.602 130.225C391.265 140.97 327.236 147.619 256.5 147.619C185.764 147.619 121.735 140.97 75.3985 130.225C52.2283 124.852 33.4979 118.458 20.5664 111.369C7.78398 104.36 0.731331 96.7092 0.559031 88.7327C2.48971 95.5878 9.36239 102.093 20.2598 108.068C33.2594 115.195 52.0518 121.605 75.2487 126.984C121.646 137.743 185.728 144.395 256.5 144.395C327.272 144.395 391.354 137.743 437.751 126.984C460.948 121.605 479.741 115.195 492.74 108.068ZM512.441 92.4174C510.51 99.2725 503.638 105.778 492.74 111.753C479.741 118.88 460.948 125.289 437.751 130.668C391.354 141.428 327.272 148.08 256.5 148.08C185.728 148.08 121.646 141.428 75.2487 130.668C52.0518 125.289 33.2594 118.88 20.2598 111.753C9.36239 105.778 2.48971 99.2725 0.559031 92.4174C0.731331 100.394 7.78398 108.045 20.5664 115.053C33.4979 122.143 52.2283 128.537 75.3985 133.91C121.735 144.655 185.764 151.304 256.5 151.304C327.236 151.304 391.265 144.655 437.602 133.91C460.772 128.537 479.502 122.143 492.434 115.053C505.216 108.045 512.269 100.394 512.441 92.4174ZM492.74 115.437C503.638 109.463 510.51 102.957 512.441 96.1021C512.269 104.079 505.216 111.73 492.434 118.738C479.502 125.828 460.772 132.221 437.602 137.594C391.265 148.339 327.236 154.988 256.5 154.988C185.764 154.988 121.735 148.339 75.3985 137.594C52.2283 132.221 33.4979 125.828 20.5664 118.738C7.78398 111.73 0.731331 104.079 0.559031 96.1021C2.48971 102.957 9.36239 109.463 20.2598 115.437C33.2594 122.564 52.0518 128.974 75.2487 134.353C121.646 145.112 185.728 151.764 256.5 151.764C327.272 151.764 391.354 145.112 437.751 134.353C460.948 128.974 479.741 122.564 492.74 115.437ZM512.441 99.7868C510.51 106.642 503.638 113.148 492.74 119.122C479.741 126.249 460.948 132.659 437.751 138.038C391.354 148.797 327.272 155.449 256.5 155.449C185.728 155.449 121.646 148.797 75.2487 138.038C52.0518 132.659 33.2594 126.249 20.2598 119.122C9.36239 113.148 2.48971 106.642 0.559031 99.7868C0.731331 107.763 7.78398 115.415 20.5664 122.423C33.4979 129.512 52.2283 135.906 75.3985 141.279C121.735 152.024 185.764 158.673 256.5 158.673C327.236 158.673 391.265 152.024 437.602 141.279C460.772 135.906 479.502 129.512 492.434 122.423C505.216 115.415 512.269 107.763 512.441 99.7868ZM492.74 122.807C503.638 116.832 510.51 110.327 512.441 103.472C512.269 111.448 505.216 119.099 492.434 126.107C479.502 133.197 460.772 139.591 437.602 144.964C391.265 155.709 327.236 162.358 256.5 162.358C185.764 162.358 121.735 155.709 75.3985 144.964C52.2283 139.591 33.4979 133.197 20.5664 126.107C7.78398 119.099 0.731331 111.448 0.559031 103.472C2.48971 110.327 9.36239 116.832 20.2598 122.807C33.2594 129.934 52.0518 136.343 75.2487 141.723C121.646 152.482 185.728 159.134 256.5 159.134C327.272 159.134 391.354 152.482 437.751 141.723C460.948 136.343 479.741 129.934 492.74 122.807ZM512.441 107.156C510.51 114.011 503.638 120.517 492.74 126.492C479.741 133.619 460.948 140.028 437.751 145.407C391.354 156.167 327.272 162.818 256.5 162.818C185.728 162.818 121.646 156.167 75.2487 145.407C52.0518 140.028 33.2594 133.619 20.2598 126.492C9.36239 120.517 2.48971 114.011 0.559031 107.156C0.731331 115.133 7.78398 122.784 20.5664 129.792C33.4979 136.882 52.2283 143.275 75.3985 148.648C121.735 159.394 185.764 166.043 256.5 166.043C327.236 166.043 391.265 159.394 437.602 148.648C460.772 143.275 479.502 136.882 492.434 129.792C505.216 122.784 512.269 115.133 512.441 107.156ZM492.74 130.176C503.638 124.202 510.51 117.696 512.441 110.841C512.269 118.817 505.216 126.469 492.434 133.477C479.502 140.567 460.772 146.96 437.602 152.333C391.265 163.078 327.236 169.727 256.5 169.727C185.764 169.727 121.735 163.078 75.3985 152.333C52.2283 146.96 33.4979 140.567 20.5664 133.477C7.78398 126.469 0.731331 118.817 0.559031 110.841C2.48971 117.696 9.36239 124.202 20.2598 130.176C33.2594 137.303 52.0518 143.713 75.2487 149.092C121.646 159.851 185.728 166.503 256.5 166.503C327.272 166.503 391.354 159.851 437.751 149.092C460.948 143.713 479.741 137.303 492.74 130.176ZM512.441 114.526C510.51 121.381 503.638 127.886 492.74 133.861C479.741 140.988 460.948 147.398 437.751 152.777C391.354 163.536 327.272 170.188 256.5 170.188C185.728 170.188 121.646 163.536 75.2487 152.777C52.0518 147.398 33.2594 140.988 20.2598 133.861C9.36239 127.886 2.48971 121.381 0.559031 114.526C0.731331 122.502 7.78398 130.153 20.5664 137.162C33.4979 144.251 52.2283 150.645 75.3985 156.018C121.735 166.763 185.764 173.412 256.5 173.412C327.236 173.412 391.265 166.763 437.602 156.018C460.772 150.645 479.502 144.251 492.434 137.162C505.216 130.153 512.269 122.502 512.441 114.526ZM492.74 137.546C503.638 131.571 510.51 125.066 512.441 118.21C512.269 126.187 505.216 133.838 492.434 140.846C479.502 147.936 460.772 154.33 437.602 159.703C391.265 170.448 327.236 177.097 256.5 177.097C185.764 177.097 121.735 170.448 75.3985 159.703C52.2283 154.33 33.4979 147.936 20.5664 140.846C7.78398 133.838 0.731331 126.187 0.559031 118.21C2.48971 125.066 9.36239 131.571 20.2598 137.546C33.2594 144.673 52.0518 151.082 75.2487 156.461C121.646 167.221 185.728 173.873 256.5 173.873C327.272 173.873 391.354 167.221 437.751 156.461C460.948 151.082 479.741 144.673 492.74 137.546ZM512.441 121.895C510.51 128.75 503.638 135.256 492.74 141.23C479.741 148.357 460.948 154.767 437.751 160.146C391.354 170.905 327.272 177.557 256.5 177.557C185.728 177.557 121.646 170.905 75.2487 160.146C52.0518 154.767 33.2594 148.357 20.2598 141.23C9.36239 135.256 2.48971 128.75 0.559031 121.895C0.731331 129.872 7.78398 137.523 20.5664 144.531C33.4979 151.621 52.2283 158.014 75.3985 163.387C121.735 174.132 185.764 180.781 256.5 180.781C327.236 180.781 391.265 174.132 437.602 163.387C460.772 158.014 479.502 151.621 492.434 144.531C505.216 137.523 512.269 129.872 512.441 121.895ZM492.74 144.915C503.638 138.941 510.51 132.435 512.441 125.58C512.269 133.556 505.216 141.208 492.434 148.216C479.502 155.305 460.772 161.699 437.602 167.072C391.265 177.817 327.236 184.466 256.5 184.466C185.764 184.466 121.735 177.817 75.3985 167.072C52.2283 161.699 33.4979 155.305 20.5664 148.216C7.78398 141.208 0.731331 133.556 0.559031 125.58C2.48971 132.435 9.36239 138.941 20.2598 144.915C33.2594 152.042 52.0518 158.452 75.2487 163.831C121.646 174.59 185.728 181.242 256.5 181.242C327.272 181.242 391.354 174.59 437.751 163.831C460.948 158.452 479.741 152.042 492.74 144.915ZM512.441 129.265C510.51 136.12 503.638 142.625 492.74 148.6C479.741 155.727 460.948 162.136 437.751 167.516C391.354 178.275 327.272 184.927 256.5 184.927C185.728 184.927 121.646 178.275 75.2487 167.516C52.0518 162.136 33.2594 155.727 20.2598 148.6C9.36239 142.625 2.48971 136.12 0.559031 129.265C0.731331 137.241 7.78398 144.892 20.5664 151.9C33.4979 158.99 52.2283 165.384 75.3985 170.757C121.735 181.502 185.764 188.151 256.5 188.151C327.236 188.151 391.265 181.502 437.602 170.757C460.772 165.384 479.502 158.99 492.434 151.9C505.216 144.892 512.269 137.241 512.441 129.265ZM492.74 152.285C503.638 146.31 510.51 139.804 512.441 132.949C512.269 140.926 505.216 148.577 492.434 155.585C479.502 162.675 460.772 169.068 437.602 174.441C391.265 185.187 327.236 191.836 256.5 191.836C185.764 191.836 121.735 185.187 75.3985 174.441C52.2283 169.068 33.4979 162.675 20.5664 155.585C7.78398 148.577 0.731331 140.926 0.559031 132.949C2.48971 139.804 9.36239 146.31 20.2598 152.285C33.2594 159.412 52.0518 165.821 75.2487 171.2C121.646 181.96 185.728 188.611 256.5 188.611C327.272 188.611 391.354 181.96 437.751 171.2C460.948 165.821 479.741 159.412 492.74 152.285ZM512.441 136.634C510.51 143.489 503.638 149.995 492.74 155.969C479.741 163.096 460.948 169.506 437.751 174.885C391.354 185.644 327.272 192.296 256.5 192.296C185.728 192.296 121.646 185.644 75.2487 174.885C52.0518 169.506 33.2594 163.096 20.2598 155.969C9.36239 149.995 2.48971 143.489 0.559031 136.634C0.731331 144.611 7.78398 152.262 20.5664 159.27C33.4979 166.36 52.2283 172.753 75.3985 178.126C121.735 188.871 185.764 195.52 256.5 195.52C327.236 195.52 391.265 188.871 437.602 178.126C460.772 172.753 479.502 166.36 492.434 159.27C505.216 152.262 512.269 144.611 512.441 136.634ZM492.74 159.654C503.638 153.679 510.51 147.174 512.441 140.319C512.269 148.295 505.216 155.946 492.434 162.955C479.502 170.044 460.772 176.438 437.602 181.811C391.265 192.556 327.236 199.205 256.5 199.205C185.764 199.205 121.735 192.556 75.3985 181.811C52.2283 176.438 33.4979 170.044 20.5664 162.955C7.78398 155.946 0.731331 148.295 0.559031 140.319C2.48971 147.174 9.36239 153.679 20.2598 159.654C33.2594 166.781 52.0518 173.191 75.2487 178.57C121.646 189.329 185.728 195.981 256.5 195.981C327.272 195.981 391.354 189.329 437.751 178.57C460.948 173.191 479.741 166.781 492.74 159.654ZM512.441 144.003C510.51 150.859 503.638 157.364 492.74 163.339C479.741 170.466 460.948 176.875 437.751 182.254C391.354 193.014 327.272 199.666 256.5 199.666C185.728 199.666 121.646 193.014 75.2487 182.254C52.0518 176.875 33.2594 170.466 20.2598 163.339C9.36239 157.364 2.48971 150.859 0.559031 144.003C0.731331 151.98 7.78398 159.631 20.5664 166.639C33.4979 173.729 52.2283 180.123 75.3985 185.496C121.735 196.241 185.764 202.89 256.5 202.89C327.236 202.89 391.265 196.241 437.602 185.496C460.772 180.123 479.502 173.729 492.434 166.639C505.216 159.631 512.269 151.98 512.441 144.003ZM492.74 167.023C503.638 161.049 510.51 154.543 512.441 147.688C512.269 155.665 505.216 163.316 492.434 170.324C479.502 177.414 460.772 183.807 437.602 189.18C391.265 199.925 327.236 206.574 256.5 206.574C185.764 206.574 121.735 199.925 75.3985 189.18C52.2283 183.807 33.4979 177.414 20.5664 170.324C7.78398 163.316 0.731331 155.665 0.559031 147.688C2.48971 154.543 9.36239 161.049 20.2598 167.023C33.2594 174.151 52.0518 180.56 75.2487 185.939C121.646 196.698 185.728 203.35 256.5 203.35C327.272 203.35 391.354 196.698 437.751 185.939C460.948 180.56 479.741 174.151 492.74 167.023ZM512.441 151.373C510.51 158.228 503.638 164.734 492.74 170.708C479.741 177.835 460.948 184.245 437.751 189.624C391.354 200.383 327.272 207.035 256.5 207.035C185.728 207.035 121.646 200.383 75.2487 189.624C52.0518 184.245 33.2594 177.835 20.2598 170.708C9.36239 164.734 2.48971 158.228 0.559031 151.373C0.731331 159.349 7.78398 167.001 20.5664 174.009C33.4979 181.098 52.2283 187.492 75.3985 192.865C121.735 203.61 185.764 210.259 256.5 210.259C327.236 210.259 391.265 203.61 437.602 192.865C460.772 187.492 479.502 181.098 492.434 174.009C505.216 167.001 512.269 159.349 512.441 151.373ZM492.74 174.393C503.638 168.418 510.51 161.913 512.441 155.058C512.269 163.034 505.216 170.685 492.434 177.693C479.502 184.783 460.772 191.177 437.602 196.55C391.265 207.295 327.236 213.944 256.5 213.944C185.764 213.944 121.735 207.295 75.3985 196.55C52.2283 191.177 33.4979 184.783 20.5664 177.693C7.78398 170.685 0.731331 163.034 0.559031 155.058C2.48971 161.913 9.36239 168.418 20.2598 174.393C33.2594 181.52 52.0518 187.929 75.2487 193.309C121.646 204.068 185.728 210.72 256.5 210.72C327.272 210.72 391.354 204.068 437.751 193.309C460.948 187.929 479.741 181.52 492.74 174.393ZM512.441 158.742C510.51 165.597 503.638 172.103 492.74 178.078C479.741 185.205 460.948 191.614 437.751 196.993C391.354 207.753 327.272 214.404 256.5 214.404C185.728 214.404 121.646 207.753 75.2487 196.993C52.0518 191.614 33.2594 185.205 20.2598 178.078C9.36239 172.103 2.48971 165.597 0.559031 158.742C0.731331 166.719 7.78398 174.37 20.5664 181.378C33.4979 188.468 52.2283 194.861 75.3985 200.234C121.735 210.98 185.764 217.629 256.5 217.629C327.236 217.629 391.265 210.98 437.602 200.234C460.772 194.861 479.502 188.468 492.434 181.378C505.216 174.37 512.269 166.719 512.441 158.742ZM492.74 181.762C503.638 175.788 510.51 169.282 512.441 162.427C512.269 170.404 505.216 178.055 492.434 185.063C479.502 192.153 460.772 198.546 437.602 203.919C391.265 214.664 327.236 221.313 256.5 221.313C185.764 221.313 121.735 214.664 75.3985 203.919C52.2283 198.546 33.4979 192.153 20.5664 185.063C7.78398 178.055 0.731331 170.404 0.559031 162.427C2.48971 169.282 9.36239 175.788 20.2598 181.762C33.2594 188.889 52.0518 195.299 75.2487 200.678C121.646 211.437 185.728 218.089 256.5 218.089C327.272 218.089 391.354 211.437 437.751 200.678C460.948 195.299 479.741 188.889 492.74 181.762ZM512.441 166.112C510.51 172.967 503.638 179.472 492.74 185.447C479.741 192.574 460.948 198.984 437.751 204.363C391.354 215.122 327.272 221.774 256.5 221.774C185.728 221.774 121.646 215.122 75.2487 204.363C52.0518 198.984 33.2594 192.574 20.2598 185.447C9.36239 179.472 2.48971 172.967 0.559031 166.112C0.731331 174.088 7.78398 181.74 20.5664 188.748C33.4979 195.837 52.2283 202.231 75.3985 207.604C121.735 218.349 185.764 224.998 256.5 224.998C327.236 224.998 391.265 218.349 437.602 207.604C460.772 202.231 479.502 195.837 492.434 188.748C505.216 181.74 512.269 174.088 512.441 166.112ZM492.74 189.132C503.638 183.157 510.51 176.652 512.441 169.796C512.269 177.773 505.216 185.424 492.434 192.432C479.502 199.522 460.772 205.916 437.602 211.289C391.265 222.034 327.236 228.683 256.5 228.683C185.764 228.683 121.735 222.034 75.3985 211.289C52.2283 205.916 33.4979 199.522 20.5664 192.432C7.78398 185.424 0.731331 177.773 0.559031 169.796C2.48971 176.652 9.36239 183.157 20.2598 189.132C33.2594 196.259 52.0518 202.668 75.2487 208.047C121.646 218.807 185.728 225.459 256.5 225.459C327.272 225.459 391.354 218.807 437.751 208.047C460.948 202.668 479.741 196.259 492.74 189.132ZM512.441 173.481C510.51 180.336 503.638 186.842 492.74 192.816C479.741 199.944 460.948 206.353 437.751 211.732C391.354 222.491 327.272 229.143 256.5 229.143C185.728 229.143 121.646 222.491 75.2487 211.732C52.0518 206.353 33.2594 199.944 20.2598 192.816C9.36239 186.842 2.48971 180.336 0.559031 173.481C0.731331 181.458 7.78398 189.109 20.5664 196.117C33.4979 203.207 52.2283 209.6 75.3985 214.973C121.735 225.718 185.764 232.367 256.5 232.367C327.236 232.367 391.265 225.718 437.602 214.973C460.772 209.6 479.502 203.207 492.434 196.117C505.216 189.109 512.269 181.458 512.441 173.481ZM492.74 196.501C503.638 190.527 510.51 184.021 512.441 177.166C512.269 185.142 505.216 192.794 492.434 199.802C479.502 206.891 460.772 213.285 437.602 218.658C391.265 229.403 327.236 236.052 256.5 236.052C185.764 236.052 121.735 229.403 75.3985 218.658C52.2283 213.285 33.4979 206.891 20.5664 199.802C7.78398 192.794 0.731331 185.142 0.559031 177.166C2.48971 184.021 9.36239 190.527 20.2598 196.501C33.2594 203.628 52.0518 210.038 75.2487 215.417C121.646 226.176 185.728 232.828 256.5 232.828C327.272 232.828 391.354 226.176 437.751 215.417C460.948 210.038 479.741 203.628 492.74 196.501ZM512.441 180.851C510.51 187.706 503.638 194.211 492.74 200.186C479.741 207.313 460.948 213.722 437.751 219.102C391.354 229.861 327.272 236.513 256.5 236.513C185.728 236.513 121.646 229.861 75.2487 219.102C52.0518 213.722 33.2594 207.313 20.2598 200.186C9.36239 194.211 2.48971 187.706 0.559031 180.851C0.731331 188.827 7.78398 196.478 20.5664 203.486C33.4979 210.576 52.2283 216.97 75.3985 222.343C121.735 233.088 185.764 239.737 256.5 239.737C327.236 239.737 391.265 233.088 437.602 222.343C460.772 216.97 479.502 210.576 492.434 203.486C505.216 196.478 512.269 188.827 512.441 180.851ZM492.74 203.871C503.638 197.896 510.51 191.39 512.441 184.535C512.269 192.512 505.216 200.163 492.434 207.171C479.502 214.261 460.772 220.654 437.602 226.027C391.265 236.773 327.236 243.422 256.5 243.422C185.764 243.422 121.735 236.773 75.3985 226.027C52.2283 220.654 33.4979 214.261 20.5664 207.171C7.78398 200.163 0.731331 192.512 0.559031 184.535C2.48971 191.39 9.36239 197.896 20.2598 203.871C33.2594 210.998 52.0518 217.407 75.2487 222.786C121.646 233.546 185.728 240.197 256.5 240.197C327.272 240.197 391.354 233.546 437.751 222.786C460.948 217.407 479.741 210.998 492.74 203.871ZM512.441 188.22C510.51 195.075 503.638 201.581 492.74 207.555C479.741 214.682 460.948 221.092 437.751 226.471C391.354 237.23 327.272 243.882 256.5 243.882C185.728 243.882 121.646 237.23 75.2487 226.471C52.0518 221.092 33.2594 214.682 20.2598 207.555C9.36239 201.581 2.48971 195.075 0.559031 188.22C0.731331 196.197 7.78398 203.848 20.5664 210.856C33.4979 217.946 52.2283 224.339 75.3985 229.712C121.735 240.457 185.764 247.106 256.5 247.106C327.236 247.106 391.265 240.457 437.602 229.712C460.772 224.339 479.502 217.946 492.434 210.856C505.216 203.848 512.269 196.197 512.441 188.22ZM492.74 211.24C503.638 205.265 510.51 198.76 512.441 191.905C512.269 199.881 505.216 207.533 492.434 214.541C479.502 221.63 460.772 228.024 437.602 233.397C391.265 244.142 327.236 250.791 256.5 250.791C185.764 250.791 121.735 244.142 75.3985 233.397C52.2283 228.024 33.4979 221.63 20.5664 214.541C7.78398 207.533 0.731331 199.881 0.559031 191.905C2.48971 198.76 9.36239 205.265 20.2598 211.24C33.2594 218.367 52.0518 224.777 75.2487 230.156C121.646 240.915 185.728 247.567 256.5 247.567C327.272 247.567 391.354 240.915 437.751 230.156C460.948 224.777 479.741 218.367 492.74 211.24ZM512.441 195.589C510.51 202.445 503.638 208.95 492.74 214.925C479.741 222.052 460.948 228.461 437.751 233.84C391.354 244.6 327.272 251.252 256.5 251.252C185.728 251.252 121.646 244.6 75.2487 233.84C52.0518 228.461 33.2594 222.052 20.2598 214.925C9.36239 208.95 2.48971 202.445 0.559031 195.589C0.731331 203.566 7.78398 211.217 20.5664 218.225C33.4979 225.315 52.2283 231.709 75.3985 237.082C121.735 247.827 185.764 254.476 256.5 254.476C327.236 254.476 391.265 247.827 437.602 237.082C460.772 231.709 479.502 225.315 492.434 218.225C505.216 211.217 512.269 203.566 512.441 195.589ZM492.74 218.609C503.638 212.635 510.51 206.129 512.441 199.274C512.269 207.251 505.216 214.902 492.434 221.91C479.502 229 460.772 235.393 437.602 240.766C391.265 251.511 327.236 258.16 256.5 258.16C185.764 258.16 121.735 251.511 75.3985 240.766C52.2283 235.393 33.4979 229 20.5664 221.91C7.78398 214.902 0.731331 207.251 0.559031 199.274C2.48971 206.129 9.36239 212.635 20.2598 218.609C33.2594 225.737 52.0518 232.146 75.2487 237.525C121.646 248.284 185.728 254.936 256.5 254.936C327.272 254.936 391.354 248.284 437.751 237.525C460.948 232.146 479.741 225.737 492.74 218.609ZM512.441 202.959C510.51 209.814 503.638 216.32 492.74 222.294C479.741 229.421 460.948 235.831 437.751 241.21C391.354 251.969 327.272 258.621 256.5 258.621C185.728 258.621 121.646 251.969 75.2487 241.21C52.0518 235.831 33.2594 229.421 20.2598 222.294C9.36239 216.32 2.48971 209.814 0.559031 202.959C0.731331 210.935 7.78398 218.587 20.5664 225.595C33.4979 232.684 52.2283 239.078 75.3985 244.451C121.735 255.196 185.764 261.845 256.5 261.845C327.236 261.845 391.265 255.196 437.602 244.451C460.772 239.078 479.502 232.684 492.434 225.595C505.216 218.587 512.269 210.935 512.441 202.959ZM492.74 225.979C503.638 220.004 510.51 213.499 512.441 206.644C512.269 214.62 505.216 222.271 492.434 229.279C479.502 236.369 460.772 242.763 437.602 248.136C391.265 258.881 327.236 265.53 256.5 265.53C185.764 265.53 121.735 258.881 75.3985 248.136C52.2283 242.763 33.4979 236.369 20.5664 229.279C7.78398 222.271 0.731331 214.62 0.559031 206.644C2.48971 213.499 9.36239 220.004 20.2598 225.979C33.2594 233.106 52.0518 239.515 75.2487 244.895C121.646 255.654 185.728 262.306 256.5 262.306C327.272 262.306 391.354 255.654 437.751 244.895C460.948 239.515 479.741 233.106 492.74 225.979ZM512.441 210.328C510.51 217.183 503.638 223.689 492.74 229.664C479.741 236.791 460.948 243.2 437.751 248.579C391.354 259.339 327.272 265.99 256.5 265.99C185.728 265.99 121.646 259.339 75.2487 248.579C52.0518 243.2 33.2594 236.791 20.2598 229.664C9.36239 223.689 2.48971 217.183 0.559031 210.328C0.731331 218.305 7.78398 225.956 20.5664 232.964C33.4979 240.054 52.2283 246.448 75.3985 251.82C121.735 262.566 185.764 269.215 256.5 269.215C327.236 269.215 391.265 262.566 437.602 251.82C460.772 246.448 479.502 240.054 492.434 232.964C505.216 225.956 512.269 218.305 512.441 210.328ZM492.74 233.348C503.638 227.374 510.51 220.868 512.441 214.013C512.269 221.99 505.216 229.641 492.434 236.649C479.502 243.739 460.772 250.132 437.602 255.505C391.265 266.25 327.236 272.899 256.5 272.899C185.764 272.899 121.735 266.25 75.3985 255.505C52.2283 250.132 33.4979 243.739 20.5664 236.649C7.78398 229.641 0.731331 221.99 0.559031 214.013C2.48971 220.868 9.36239 227.374 20.2598 233.348C33.2594 240.475 52.0518 246.885 75.2487 252.264C121.646 263.023 185.728 269.675 256.5 269.675C327.272 269.675 391.354 263.023 437.751 252.264C460.948 246.885 479.741 240.475 492.74 233.348ZM512.441 217.698C510.51 224.553 503.638 231.058 492.74 237.033C479.741 244.16 460.948 250.57 437.751 255.949C391.354 266.708 327.272 273.36 256.5 273.36C185.728 273.36 121.646 266.708 75.2487 255.949C52.0518 250.57 33.2594 244.16 20.2598 237.033C9.36239 231.058 2.48971 224.553 0.559031 217.698C0.731331 225.674 7.78398 233.325 20.5664 240.334C33.4979 247.423 52.2283 253.817 75.3985 259.19C121.735 269.935 185.764 276.584 256.5 276.584C327.236 276.584 391.265 269.935 437.602 259.19C460.772 253.817 479.502 247.423 492.434 240.334C505.216 233.325 512.269 225.674 512.441 217.698ZM492.74 240.718C503.638 234.743 510.51 228.238 512.441 221.382C512.269 229.359 505.216 237.01 492.434 244.018C479.502 251.108 460.772 257.502 437.602 262.875C391.265 273.62 327.236 280.269 256.5 280.269C185.764 280.269 121.735 273.62 75.3985 262.875C52.2283 257.502 33.4979 251.108 20.5664 244.018C7.78398 237.01 0.731331 229.359 0.559031 221.382C2.48971 228.238 9.36239 234.743 20.2598 240.718C33.2594 247.845 52.0518 254.254 75.2487 259.633C121.646 270.393 185.728 277.045 256.5 277.045C327.272 277.045 391.354 270.393 437.751 259.633C460.948 254.254 479.741 247.845 492.74 240.718ZM512.441 225.067C510.51 231.922 503.638 238.428 492.74 244.402C479.741 251.53 460.948 257.939 437.751 263.318C391.354 274.077 327.272 280.729 256.5 280.729C185.728 280.729 121.646 274.077 75.2487 263.318C52.0518 257.939 33.2594 251.53 20.2598 244.402C9.36239 238.428 2.48971 231.922 0.559031 225.067C0.731331 233.044 7.78398 240.695 20.5664 247.703C33.4979 254.793 52.2283 261.186 75.3985 266.559C121.735 277.304 185.764 283.953 256.5 283.953C327.236 283.953 391.265 277.304 437.602 266.559C460.772 261.186 479.502 254.793 492.434 247.703C505.216 240.695 512.269 233.044 512.441 225.067ZM492.74 248.087C503.638 242.113 510.51 235.607 512.441 228.752C512.269 236.728 505.216 244.38 492.434 251.388C479.502 258.477 460.772 264.871 437.602 270.244C391.265 280.989 327.236 287.638 256.5 287.638C185.764 287.638 121.735 280.989 75.3985 270.244C52.2283 264.871 33.4979 258.477 20.5664 251.388C7.78398 244.38 0.731332 236.728 0.559031 228.752C2.48971 235.607 9.36239 242.113 20.2598 248.087C33.2594 255.214 52.0518 261.624 75.2487 267.003C121.646 277.762 185.728 284.414 256.5 284.414C327.272 284.414 391.354 277.762 437.751 267.003C460.948 261.624 479.741 255.214 492.74 248.087ZM512.441 232.437C510.51 239.292 503.638 245.797 492.74 251.772C479.741 258.899 460.948 265.308 437.751 270.688C391.354 281.447 327.272 288.099 256.5 288.099C185.728 288.099 121.646 281.447 75.2487 270.688C52.0518 265.308 33.2594 258.899 20.2598 251.772C9.36239 245.797 2.48971 239.292 0.559031 232.437C0.731329 240.413 7.78398 248.064 20.5664 255.072C33.4979 262.162 52.2283 268.556 75.3985 273.929C121.735 284.674 185.764 291.323 256.5 291.323C327.236 291.323 391.265 284.674 437.602 273.929C460.772 268.556 479.502 262.162 492.434 255.072C505.216 248.064 512.269 240.413 512.441 232.437ZM492.74 255.457C503.638 249.482 510.51 242.976 512.441 236.121C512.269 244.098 505.216 251.749 492.434 258.757C479.502 265.847 460.772 272.241 437.602 277.614C391.265 288.359 327.236 295.008 256.5 295.008C185.764 295.008 121.735 288.359 75.3985 277.614C52.2283 272.241 33.4979 265.847 20.5664 258.757C7.78398 251.749 0.731329 244.098 0.559031 236.121C2.48971 242.976 9.36239 249.482 20.2598 255.457C33.2594 262.584 52.0518 268.993 75.2487 274.372C121.646 285.132 185.728 291.783 256.5 291.783C327.272 291.783 391.354 285.132 437.751 274.372C460.948 268.993 479.741 262.584 492.74 255.457ZM512.441 239.806C510.51 246.661 503.638 253.167 492.74 259.141C479.741 266.268 460.948 272.678 437.751 278.057C391.354 288.816 327.272 295.468 256.5 295.468C185.728 295.468 121.646 288.816 75.2487 278.057C52.0518 272.678 33.2594 266.268 20.2598 259.141C9.36239 253.167 2.48971 246.661 0.559031 239.806C0.731329 247.783 7.78398 255.434 20.5664 262.442C33.4979 269.532 52.2283 275.925 75.3985 281.298C121.735 292.043 185.764 298.692 256.5 298.692C327.236 298.692 391.265 292.043 437.602 281.298C460.772 275.925 479.502 269.532 492.434 262.442C505.216 255.434 512.269 247.783 512.441 239.806ZM492.74 262.826C503.638 256.851 510.51 250.346 512.441 243.491C512.269 251.467 505.216 259.118 492.434 266.127C479.502 273.216 460.772 279.61 437.602 284.983C391.265 295.728 327.236 302.377 256.5 302.377C185.764 302.377 121.735 295.728 75.3985 284.983C52.2283 279.61 33.4979 273.216 20.5664 266.127C7.78398 259.118 0.731329 251.467 0.559031 243.491C2.48971 250.346 9.36239 256.851 20.2598 262.826C33.2594 269.953 52.0518 276.363 75.2487 281.742C121.646 292.501 185.728 299.153 256.5 299.153C327.272 299.153 391.354 292.501 437.751 281.742C460.948 276.363 479.741 269.953 492.74 262.826ZM512.441 247.175C510.51 254.031 503.638 260.536 492.74 266.511C479.741 273.638 460.948 280.047 437.751 285.427C391.354 296.186 327.272 302.838 256.5 302.838C185.728 302.838 121.646 296.186 75.2487 285.427C52.0518 280.047 33.2594 273.638 20.2598 266.511C9.36239 260.536 2.48971 254.031 0.559031 247.175C0.731329 255.152 7.78398 262.803 20.5664 269.811C33.4979 276.901 52.2283 283.295 75.3985 288.668C121.735 299.413 185.764 306.062 256.5 306.062C327.236 306.062 391.265 299.413 437.602 288.668C460.772 283.295 479.502 276.901 492.434 269.811C505.216 262.803 512.269 255.152 512.441 247.175ZM492.74 270.195C503.638 264.221 510.51 257.715 512.441 250.86C512.269 258.837 505.216 266.488 492.434 273.496C479.502 280.586 460.772 286.979 437.602 292.352C391.265 303.097 327.236 309.746 256.5 309.746C185.764 309.746 121.735 303.097 75.3985 292.352C52.2283 286.979 33.4979 280.586 20.5664 273.496C7.78398 266.488 0.731329 258.837 0.559031 250.86C2.48971 257.715 9.36239 264.221 20.2598 270.195C33.2594 277.323 52.0518 283.732 75.2487 289.111C121.646 299.871 185.728 306.522 256.5 306.522C327.272 306.522 391.354 299.871 437.751 289.111C460.948 283.732 479.741 277.323 492.74 270.195ZM512.441 254.545C510.51 261.4 503.638 267.906 492.74 273.88C479.741 281.007 460.948 287.417 437.751 292.796C391.354 303.555 327.272 310.207 256.5 310.207C185.728 310.207 121.646 303.555 75.2487 292.796C52.0518 287.417 33.2594 281.007 20.2598 273.88C9.36239 267.906 2.48971 261.4 0.559031 254.545C0.731329 262.521 7.78398 270.173 20.5664 277.181C33.4979 284.27 52.2283 290.664 75.3985 296.037C121.735 306.782 185.764 313.431 256.5 313.431C327.236 313.431 391.265 306.782 437.602 296.037C460.772 290.664 479.502 284.27 492.434 277.181C505.216 270.173 512.269 262.521 512.441 254.545ZM492.74 277.565C503.638 271.59 510.51 265.085 512.441 258.23C512.269 266.206 505.216 273.857 492.434 280.865C479.502 287.955 460.772 294.349 437.602 299.722C391.265 310.467 327.236 317.116 256.5 317.116C185.764 317.116 121.735 310.467 75.3985 299.722C52.2283 294.349 33.4979 287.955 20.5664 280.865C7.78398 273.857 0.731329 266.206 0.559031 258.23C2.48971 265.085 9.36239 271.59 20.2598 277.565C33.2594 284.692 52.0518 291.101 75.2487 296.481C121.646 307.24 185.728 313.892 256.5 313.892C327.272 313.892 391.354 307.24 437.751 296.481C460.948 291.101 479.741 284.692 492.74 277.565ZM512.441 261.914C510.51 268.769 503.638 275.275 492.74 281.25C479.741 288.377 460.948 294.786 437.751 300.165C391.354 310.925 327.272 317.576 256.5 317.576C185.728 317.576 121.646 310.925 75.2487 300.165C52.0518 294.786 33.2594 288.377 20.2598 281.25C9.36239 275.275 2.48971 268.769 0.559031 261.914C0.731329 269.891 7.78398 277.542 20.5664 284.55C33.4979 291.64 52.2283 298.034 75.3985 303.407C121.735 314.152 185.764 320.801 256.5 320.801C327.236 320.801 391.265 314.152 437.602 303.407C460.772 298.034 479.502 291.64 492.434 284.55C505.216 277.542 512.269 269.891 512.441 261.914ZM492.74 284.934C503.638 278.96 510.51 272.454 512.441 265.599C512.269 273.576 505.216 281.227 492.434 288.235C479.502 295.325 460.772 301.718 437.602 307.091C391.265 317.836 327.236 324.485 256.5 324.485C185.764 324.485 121.735 317.836 75.3985 307.091C52.2283 301.718 33.4979 295.325 20.5664 288.235C7.78398 281.227 0.731329 273.576 0.559031 265.599C2.48971 272.454 9.36239 278.96 20.2598 284.934C33.2594 292.061 52.0518 298.471 75.2487 303.85C121.646 314.609 185.728 321.261 256.5 321.261C327.272 321.261 391.354 314.609 437.751 303.85C460.948 298.471 479.741 292.061 492.74 284.934ZM512.441 269.284C510.51 276.139 503.638 282.644 492.74 288.619C479.741 295.746 460.948 302.156 437.751 307.535C391.354 318.294 327.272 324.946 256.5 324.946C185.728 324.946 121.646 318.294 75.2487 307.535C52.0518 302.156 33.2594 295.746 20.2598 288.619C9.36239 282.644 2.48971 276.139 0.559031 269.284C0.731329 277.26 7.78398 284.911 20.5664 291.92C33.4979 299.009 52.2283 305.403 75.3985 310.776C121.735 321.521 185.764 328.17 256.5 328.17C327.236 328.17 391.265 321.521 437.602 310.776C460.772 305.403 479.502 299.009 492.434 291.92C505.216 284.911 512.269 277.26 512.441 269.284ZM492.74 292.304C503.638 286.329 510.51 279.824 512.441 272.968C512.269 280.945 505.216 288.596 492.434 295.604C479.502 302.694 460.772 309.088 437.602 314.461C391.265 325.206 327.236 331.855 256.5 331.855C185.764 331.855 121.735 325.206 75.3985 314.461C52.2283 309.088 33.4979 302.694 20.5664 295.604C7.78398 288.596 0.731329 280.945 0.559031 272.968C2.48971 279.824 9.36239 286.329 20.2598 292.304C33.2594 299.431 52.0518 305.84 75.2487 311.22C121.646 321.979 185.728 328.631 256.5 328.631C327.272 328.631 391.354 321.979 437.751 311.22C460.948 305.84 479.741 299.431 492.74 292.304ZM512.441 276.653C510.51 283.508 503.638 290.014 492.74 295.988C479.741 303.116 460.948 309.525 437.751 314.904C391.354 325.664 327.272 332.315 256.5 332.315C185.728 332.315 121.646 325.664 75.2487 314.904C52.0518 309.525 33.2594 303.116 20.2598 295.988C9.36239 290.014 2.48971 283.508 0.559031 276.653C0.731329 284.63 7.78398 292.281 20.5664 299.289C33.4979 306.379 52.2283 312.772 75.3985 318.145C121.735 328.891 185.764 335.539 256.5 335.539C327.236 335.539 391.265 328.891 437.602 318.145C460.772 312.772 479.502 306.379 492.434 299.289C505.216 292.281 512.269 284.63 512.441 276.653Z" fill="url(#paint0_linear)"/>
<defs>
<linearGradient id="paint0_linear" x1="513" y1="177.557" x2="-25.7347" y2="163.811" gradientUnits="userSpaceOnUse">
<stop stop-color="#4F4F4F"/>
<stop offset="1" stop-color="#4F4F4F" stop-opacity="0"/>
</linearGradient>
</defs>
</svg>
