<svg width="22" height="27" viewBox="0 0 22 27" fill="none" xmlns="http://www.w3.org/2000/svg">
<path d="M10.968 0C8.98763 0 7.27389 0.664699 5.82673 1.9941C4.37957 3.32349 3.65599 4.89778 3.65599 6.71695V10.0754C2.62774 10.0754 1.76135 10.399 1.05681 11.0462C0.352269 11.6934 0 12.4893 0 13.4339V23.5093C0 24.4539 0.352269 25.2498 1.05681 25.897C1.76135 26.5442 2.62774 26.8678 3.65599 26.8678H18.2799C19.3082 26.8678 20.1746 26.5442 20.8791 25.897C21.5836 25.2498 21.9359 24.4539 21.9359 23.5093V13.4339C21.9359 12.4893 21.5836 11.6934 20.8791 11.0462C20.1746 10.399 19.3082 10.0754 18.2799 10.0754V6.71695C18.2799 4.89778 17.5563 3.32349 16.1092 1.9941C14.662 0.664699 12.9483 0 10.968 0ZM19.4795 13.4339V23.5093C19.4795 24.244 19.0797 24.6113 18.2799 24.6113H3.65599C2.85624 24.6113 2.45637 24.244 2.45637 23.5093V13.4339C2.45637 12.6992 2.85624 12.3319 3.65599 12.3319H18.2799C19.0797 12.3319 19.4795 12.6992 19.4795 13.4339ZM6.11235 10.0754V6.71695C6.11235 5.49251 6.58839 4.44299 7.54047 3.56838C8.49255 2.69378 9.63505 2.25648 10.968 2.25648C12.3009 2.25648 13.4434 2.69378 14.3954 3.56838C15.3475 4.44299 15.8236 5.49251 15.8236 6.71695V10.0754H6.11235ZM10.968 13.4339C9.93971 13.4339 9.07332 13.7575 8.36878 14.4047C7.66424 15.0519 7.31197 15.8478 7.31197 16.7924C7.31197 17.4921 7.54047 18.1305 7.99747 18.7078C8.45447 19.285 9.04476 19.6961 9.76834 19.941V21.2529C9.76834 22.0225 10.1682 22.4073 10.968 22.4073C11.7677 22.4073 12.1676 22.0225 12.1676 21.2529V19.941C13.8052 19.4162 14.6239 18.3667 14.6239 16.7924C14.6239 15.8478 14.2717 15.0519 13.5671 14.4047C12.8626 13.7575 11.9962 13.4339 10.968 13.4339ZM10.968 17.8944C10.1682 17.8944 9.76834 17.5271 9.76834 16.7924C9.76834 16.0577 10.1682 15.6904 10.968 15.6904C11.7677 15.6904 12.1676 16.0577 12.1676 16.7924C12.1676 17.5271 11.7677 17.8944 10.968 17.8944Z" fill="white"/>
</svg>
