<svg width="25" height="25" viewBox="0 0 25 25" fill="none" xmlns="http://www.w3.org/2000/svg">
<path d="M1.4967 23.4118C1.4967 23.9324 1.9426 24.3529 2.49451 24.3529H11.4124V13.2941H1.4967V23.4118ZM13.5327 24.3529H22.4506C23.0025 24.3529 23.4484 23.9324 23.4484 23.4118V13.2941H13.5327V24.3529ZM23.9473 6.23529H19.3449C19.769 5.60588 20.0184 4.85882 20.0184 4.05882C20.0184 1.82059 18.0883 0 15.7154 0C14.4245 0 13.2614 0.541176 12.4725 1.39412C11.6836 0.541176 10.5206 0 9.22968 0C6.85678 0 4.92665 1.82059 4.92665 4.05882C4.92665 4.85882 5.17298 5.60588 5.60017 6.23529H0.997803C0.445893 6.23529 0 6.65588 0 7.17647V11.2941H11.4124V6.23529H13.5327V11.2941H24.9451V7.17647C24.9451 6.65588 24.4992 6.23529 23.9473 6.23529ZM11.4124 6.11765H9.22968C8.02608 6.11765 7.04698 5.19412 7.04698 4.05882C7.04698 2.92353 8.02608 2 9.22968 2C10.4333 2 11.4124 2.92353 11.4124 4.05882V6.11765ZM15.7154 6.11765H13.5327V4.05882C13.5327 2.92353 14.5118 2 15.7154 2C16.919 2 17.8981 2.92353 17.8981 4.05882C17.8981 5.19412 16.919 6.11765 15.7154 6.11765Z" fill="white"/>
</svg>
