<svg width="30" height="29" viewBox="0 0 30 29" fill="none" xmlns="http://www.w3.org/2000/svg">
<path fill-rule="evenodd" clip-rule="evenodd" d="M19.7377 24.8103C19.953 24.6155 20.1591 24.4092 20.3551 24.1921C17.1323 22.615 14.6874 20.701 12.4838 18.7642C9.85249 18.7572 7.14016 18.0342 5.75159 16.1848C7.82067 17.3077 9.99831 17.313 10.7323 17.2064C4.51208 11.1534 2.78974 5.2348 2.78974 5.2348C4.91877 8.8324 7.16608 11.6127 9.36641 13.8201C8.44447 11.92 8.98402 8.40627 8.98402 8.40627C10.7777 15.2138 10.9883 15.3221 10.87 15.3814C12.3283 16.6546 13.908 17.8508 15.2237 18.7642C14.7506 17.5767 14.4152 15.846 14.4589 12.8806C14.4589 12.8806 15.6287 19.1013 17.4661 20.6329C18.9292 21.5428 20.2173 22.2483 21.2154 22.7845C22.7968 20.2417 22.8049 13.4621 18.9292 10.7395C14.7522 7.80202 7.70887 7.69025 0.584557 0.177202C-1.54609 -2.07042 2.41384 17.7041 8.15121 23.2176C11.6769 26.6143 16.2655 27.9346 19.7377 24.8103Z" fill="white"/>
<path fill-rule="evenodd" clip-rule="evenodd" d="M22 24.8767C22 24.8767 23.9119 25.9472 26.1058 26.9916C28.2997 28.0359 29.3512 27.8246 29.4744 28.0831C29.6007 28.3451 29.5375 25.2155 29.5375 25.2155C29.5375 25.2155 26.5757 25.9717 23.2784 24L22 24.8767Z" fill="white"/>
</svg>
