<svg width="100" height="88" viewBox="0 0 100 88" fill="none" xmlns="http://www.w3.org/2000/svg">
<path d="M46.9877 14.9822L50 20.0734L53.0122 14.9822C57.1935 7.9153 64.4926 3.5 72.7273 3.5C85.5586 3.5 96.5 14.8885 96.5 29.3333C96.5 35.6877 93.7774 42.3301 89.2957 48.9033C84.8334 55.4481 78.8159 61.6464 72.6878 67.0392C66.5746 72.4188 60.4451 76.9151 55.8356 80.0701C53.5342 81.6453 51.6196 82.8807 50.2858 83.7191C50.1898 83.7794 50.0968 83.8377 50.0069 83.8939C49.9157 83.8365 49.8213 83.7768 49.7238 83.7151C48.3896 82.8704 46.4744 81.6262 44.1723 80.0412C39.5617 76.8667 33.4307 72.3468 27.3158 66.9507C21.1859 61.5414 15.1665 55.3339 10.7028 48.798C6.21797 42.2312 3.5 35.6211 3.5 29.3333C3.5 14.8885 14.4414 3.5 27.2727 3.5C35.5074 3.5 42.8065 7.9153 46.9877 14.9822Z" stroke="#3D3D3D" stroke-width="7"/>
</svg>
