<svg width="46" height="35" viewBox="0 0 46 35" fill="none" xmlns="http://www.w3.org/2000/svg">
<path d="M15.6131 7.26415C17.9772 9.81132 23.8876 17.0755 23.986 17.1698C24.774 18.1604 25.6606 19.2925 26.5964 20.4717C29.1083 23.7736 31.965 27.4528 34.7724 29.6698V5.51887H31.3739V18.0189L31.2754 17.9245C30.3397 16.7925 29.3546 15.566 28.3696 14.3396C26.7441 12.3585 25.1188 10.283 23.7397 8.77359C22.804 7.73585 20.1443 5.23585 19.4548 4.66981C16.3026 1.79245 11.1803 0 6.10733 0C3.89096 0 1.97011 0.330189 0 0.990566V1.13208C0.788042 0.943396 1.67459 0.896226 2.61039 0.896226C4.53124 0.896226 6.40284 1.27358 8.27444 1.98113C10.4909 2.73585 13.7415 5.04717 15.6131 7.26415Z" fill="white"/>
<path d="M37.3502 32.6887C35.1338 31.8868 31.8832 29.5755 29.9622 27.4057C27.5982 24.8113 21.8848 17.5472 21.8355 17.5C21.0475 16.5095 20.161 15.3774 19.2252 14.1981C16.7133 10.8962 13.8567 7.21698 11 5V29.0566H14.4477V16.6038L14.497 16.6981C15.4327 17.8302 16.4178 19.0566 17.4028 20.283C19.0281 22.2642 20.6536 24.3396 22.0326 25.8491C22.9684 26.8868 25.4311 29.3868 26.1206 29.9529C29.2728 32.8302 34.3951 34.6698 39.468 34.6698C41.6844 34.6698 43.8023 34.3396 45.7724 33.7264V33.5849C44.9844 33.7264 44.0978 33.8208 43.2112 33.8208C41.2904 33.7264 39.271 33.3962 37.3502 32.6887Z" fill="white"/>
</svg>
