<svg width="158" height="29" viewBox="0 0 158 29" fill="none" xmlns="http://www.w3.org/2000/svg">
<path d="M148.035 4.18237H147.954H147.872C145.554 4.18237 137.948 4.89258 137.907 14.1252C137.907 23.7524 146.246 24.2259 147.913 24.2259H147.994C149.052 24.2259 152.672 24.0286 155.275 21.5429C157.105 19.8069 158 17.2817 158 14.1252C157.959 4.89258 150.354 4.18237 148.035 4.18237ZM151.004 20.3198C150.435 20.7933 149.499 21.3457 148.076 21.3457H147.791C146.368 21.3457 145.432 20.7933 144.863 20.3198C143.439 19.0967 142.707 16.8871 142.707 13.7701C142.747 7.65448 145.88 6.747 147.751 6.747H148.035C149.906 6.747 153.038 7.65448 153.078 13.7701C153.16 16.8871 152.428 19.0967 151.004 20.3198Z" fill="white"/>
<path d="M135.849 14.3495C133.532 12.4162 130.969 11.9428 129.017 10.6407C127.675 9.57543 127.715 8.15503 128.447 7.4448C130.115 5.66929 133.45 6.37949 134.304 6.57677C135.321 6.81351 135.849 7.0897 136.785 7.52371V5.27473C132.718 4.09106 126.21 2.98629 123.688 7.01079C122.753 8.66795 122.509 11.6666 125.234 13.4421C127.959 15.5332 132.677 16.5197 133.206 18.2557C133.572 19.2026 133.165 20.1101 132.514 20.7414C130.074 22.9509 125.966 21.6095 123.485 20.5047V22.9115C126.21 24.0952 129.626 24.4108 132.677 23.7795C134.751 23.2666 137.11 21.4911 137.476 19.2421C137.761 16.9931 137.314 15.5727 135.849 14.3495Z" fill="white"/>
<path d="M120.985 14.3495C118.667 12.4162 116.104 11.9428 114.152 10.6407C112.809 9.57543 112.85 8.15503 113.582 7.4448C115.25 5.66929 118.585 6.37949 119.439 6.57677C120.456 6.81351 120.985 7.0897 121.921 7.52371V5.27473C117.853 4.09106 111.345 2.98629 108.824 7.01079C107.889 8.66795 107.644 11.6666 110.369 13.4421C113.095 15.5332 117.813 16.5197 118.341 18.2557C118.707 19.2026 118.301 20.1101 117.649 20.7414C115.25 22.9509 111.102 21.6095 108.621 20.5047V22.9115C111.345 24.0952 114.762 24.4108 117.813 23.7795C119.887 23.2666 122.246 21.4911 122.571 19.2421C122.937 16.9931 122.49 15.5727 120.985 14.3495Z" fill="white"/>
<path d="M94.1404 23.9576H107.196V21.6692H98.6552V15.3562H105.488V13.1467H98.6552V7.30724H107.196V5.0188H94.1404V23.9576Z" fill="white"/>
<path d="M89.895 14.8433C91.3599 13.1861 91.4816 10.582 90.8713 8.49089C90.0584 6.16301 87.6989 5.05825 85.2176 5.0188H76.7988V23.9971H81.2728L81.2321 17.0134C81.2321 17.0134 82.0456 17.0922 83.3878 17.0134L87.6989 24.0365H92.6205L87.658 16.2242C88.4718 15.9086 89.4073 15.4746 89.895 14.8433ZM86.2757 13.5807C85.0551 14.8433 83.0217 14.6855 81.3135 14.5671V7.46506C81.3135 7.46506 84.8925 6.67594 86.3974 8.60925C87.252 9.67457 87.292 12.2786 86.2757 13.5807Z" fill="white"/>
<path d="M69.7679 5.0188H61.1086V24.2575H65.705C65.705 24.2575 65.705 23.8265 65.705 23.082L65.6229 17.2046C65.6229 17.2046 72.5175 17.6356 74.6105 14.9712C76.1289 13.2863 76.2521 10.6611 75.5955 8.5452C74.7336 6.15509 72.3123 5.05798 69.7679 5.0188ZM70.7528 13.6782C69.5217 14.9712 67.4287 14.7752 65.6229 14.6577V7.48731C65.6229 7.48731 69.3164 6.70365 70.876 8.66283C71.7378 9.72069 71.7788 12.3459 70.7528 13.6782Z" fill="white"/>
<path d="M58.2248 15.186C55.9065 13.2527 53.3442 12.7792 51.3919 11.4772C50.0497 10.4119 50.0904 8.99146 50.8225 8.28122C52.49 6.50571 55.8252 7.21592 56.6793 7.4132C57.6961 7.64994 58.2248 7.92613 59.1603 8.36013V6.11115C55.0931 4.92748 48.5854 3.82271 46.0638 7.84722C45.1283 9.50437 44.8842 12.503 47.6093 14.2785C50.3344 16.3696 55.0524 17.3561 55.5811 19.0921C55.9471 20.039 55.5404 20.9465 54.8897 21.5778C52.49 23.7873 48.3414 22.4459 45.8604 21.3411V23.7479C48.5854 24.9316 52.0019 25.2472 55.0524 24.6159C57.1267 24.103 59.4857 22.3275 59.8517 20.0785C60.1364 17.8295 59.689 16.4091 58.2248 15.186Z" fill="white"/>
<path d="M31.3801 24.2575H44.5928V21.9328H35.9348V15.5199H42.8283V13.2754H35.9348V7.34347H44.5928V5.0188H31.3801V24.2575Z" fill="white"/>
<path d="M12.8932 6.0762C14.8455 8.20681 19.7262 14.283 19.8075 14.3619C20.4582 15.1905 21.1903 16.1375 21.9631 17.1238C24.0374 19.8857 26.3964 22.9633 28.7148 24.8177V4.61633H25.9084V15.0721L25.827 14.9932C25.0543 14.0463 24.2408 13.0204 23.4274 11.9945C22.0851 10.3374 20.7429 8.60135 19.6041 7.33879C18.8314 6.47075 16.635 4.3796 16.0657 3.90612C13.4626 1.49932 9.23264 0 5.04339 0C3.21313 0 1.6269 0.276191 0 0.828572V0.946943C0.650759 0.789116 1.38286 0.74966 2.15564 0.74966C3.74187 0.74966 5.28742 1.0653 6.83297 1.65714C8.66328 2.28844 11.3476 4.22177 12.8932 6.0762Z" fill="white"/>
<path d="M30.8435 27.3429C29.0133 26.6722 26.3289 24.7389 24.7426 22.9239C22.7904 20.7538 18.0723 14.6776 18.0317 14.6381C17.3809 13.8096 16.6488 12.8627 15.8761 11.8762C13.8018 9.11431 11.4428 6.0368 9.08374 4.18237V24.3048H11.9308V13.8885L11.9715 13.9674C12.7442 14.9143 13.5577 15.9402 14.3711 16.966C15.7133 18.6232 17.0556 20.3592 18.1944 21.6219C18.9671 22.4899 21.0008 24.581 21.5702 25.0545C24.1732 27.4613 28.4032 29.0001 32.5924 29.0001C34.4227 29.0001 36.1716 28.7239 37.7985 28.2109V28.0926C37.1478 28.2109 36.4157 28.2899 35.6835 28.2899C34.0973 28.2109 32.4297 27.9347 30.8435 27.3429Z" fill="white"/>
</svg>
