<svg width="31" height="23" viewBox="0 0 31 23" fill="none" xmlns="http://www.w3.org/2000/svg">
<path fill-rule="evenodd" clip-rule="evenodd" d="M25.5229 18.1318C25.5281 19.2606 24.6212 20.1761 23.4924 20.1813C22.3636 20.1866 21.4481 19.2797 21.4429 18.1509C21.4376 17.0221 22.3445 16.1066 23.4733 16.1014C24.6021 16.0961 25.5176 17.003 25.5229 18.1318ZM22.0752 7.94777L25.4752 7.93189L28.1567 11.3194L22.0911 11.3478L22.0752 7.94777ZM9.20295 18.2081C9.20822 19.3368 8.30128 20.2523 7.17249 20.2576C6.0437 20.2628 5.12824 19.3559 5.12297 18.2271C5.1177 17.0983 6.02464 16.1829 7.15343 16.1776C8.28223 16.1723 9.19768 17.0793 9.20295 18.2081ZM30.2511 11.3096L26.1457 5.88873L22.0657 5.90779L22.0403 0.46782L3.00041 0.556747C1.49082 0.563798 0.286078 1.77984 0.293128 3.28943L0.363001 18.2493L3.08298 18.2366C3.09353 20.4942 4.92443 22.3081 7.18202 22.2976C9.4396 22.287 11.2535 20.4561 11.2429 18.1985L19.4029 18.1604C19.4134 20.418 21.2443 22.2319 23.5019 22.2213C25.7595 22.2108 27.5734 20.3799 27.5628 18.1223L30.2828 18.1096L30.2511 11.3096ZM3.07028 15.5167L3.01311 3.27673L19.333 3.20051L19.3902 15.4404L10.1966 15.4834C9.44477 14.6573 8.3543 14.132 7.1439 14.1376C5.93351 14.1433 4.848 14.6787 4.10387 15.5118L3.07028 15.5167ZM6.78473 9.70051L10.0315 12.8163C10.2308 13.0075 10.5473 13.001 10.7385 12.8018C10.9297 12.6025 10.9232 12.286 10.7239 12.0948L8.34808 9.8148L15.2995 9.67168L15.279 8.67189L8.32749 8.81501L10.6075 6.43915C10.7987 6.23991 10.7922 5.92339 10.5929 5.73219C10.3937 5.54099 10.0772 5.54751 9.88599 5.74675L6.77018 8.99355C6.57898 9.19279 6.58549 9.50931 6.78473 9.70051Z" fill="white"/>
</svg>
