<svg width="93" height="88" viewBox="0 0 93 88" fill="none" xmlns="http://www.w3.org/2000/svg">
<path d="M46.5 40.5C40.906 40.5 36.2745 38.6752 32.4019 35.0215C28.5365 31.3746 26.6818 27.0979 26.6818 22C26.6818 16.9021 28.5365 12.6254 32.4019 8.97853C36.2745 5.32483 40.906 3.5 46.5 3.5C52.094 3.5 56.7255 5.32483 60.5981 8.97853C64.4635 12.6254 66.3182 16.9021 66.3182 22C66.3182 27.0979 64.4635 31.3746 60.5981 35.0215C56.7255 38.6752 52.094 40.5 46.5 40.5ZM46.5 58.5643C51.9187 58.5643 57.9765 59.2954 64.6913 60.7959C71.2431 62.2599 77.1974 64.6498 82.5777 67.9534C87.832 71.1795 89.5 74.2328 89.5 76.9357V84.5H3.5V76.9357C3.5 74.2328 5.16799 71.1796 10.4223 67.9534C15.8026 64.6498 21.7568 62.2599 28.3087 60.7959C35.0235 59.2954 41.0813 58.5643 46.5 58.5643Z" stroke="#3D3D3D" stroke-width="7"/>
</svg>
